
<svg width="256px" height="256px" viewBox="0 0 256 256" version="1.1" xmlns="http://www.w3.org/2000/svg" xmlns:xlink="http://www.w3.org/1999/xlink" preserveAspectRatio="xMinYMin meet">
    <g id="Page-1" stroke="none" stroke-width="1" fill="none" fill-rule="evenodd">
        <g id="thehallwaytrack_dark">
            <rect id="bkg" fill="#222222" x="0" y="0" width="256" height="256"></rect>
            <g id="thehallwaytrack">
                <g transform="translate(37.000000, 63.000000)">
                    <g id="track" fill="#FFFFFF">
                        <g transform="translate(0.000000, 93.000000)">
                            <path d="M12.3473684,36 C13.4210526,36 14.9719298,35.7584986 17,35.2754958 L17,35.2754958 L17,31.8505666 C15.3447368,32.3482059 14.1070175,32.5970255 13.2868421,32.5970255 C12.2578947,32.5970255 11.3743421,32.3994334 10.6361842,32.0042493 C9.89802632,31.6090652 9.35745614,30.9906752 9.01447368,30.1490793 C8.67149123,29.3074835 8.5,27.8035883 8.5,25.6373938 L8.5,25.6373938 L8.5,14.1990085 L15.7921053,14.1990085 L15.7921053,10.796034 L8.5,10.796034 L8.5,5 L4.33947368,5 L4.33947368,10.796034 L0,10.796034 L0,14.1990085 L4.33947368,14.1990085 L4.33947368,26.8009915 C4.33947368,29.3623702 4.66381579,31.2285175 5.3125,32.3994334 C5.96118421,33.5703494 6.90811404,34.4631728 8.15328947,35.0779037 C9.39846491,35.6926346 10.7964912,36 12.3473684,36 Z" id="Path" fill="#FFFFFF" fill-rule="nonzero"></path>
                            <path d="M26.1464968,35 L26.1464968,22.9790941 C26.1464968,19.5818815 26.8784501,17.2154472 28.3423567,15.8797909 C29.8062633,14.5441347 31.3184713,13.8763066 32.8789809,13.8763066 C33.9787686,13.8763066 35.0191083,14.1085947 36,14.5731707 L36,14.5731707 L36,10.3702091 C35.3757962,10.123403 34.6326964,10 33.7707006,10 C32.8195329,10 31.8869427,10.1778455 30.9729299,10.5335366 C30.0589172,10.8892276 29.1969214,11.4082462 28.3869427,12.0905923 C27.5769639,12.7729384 26.8301486,13.7311266 26.1464968,14.9651568 L26.1464968,14.9651568 L26.1464968,10.6750871 L22,10.6750871 L22,35 L26.1464968,35 Z" id="Path" fill="#FFFFFF" fill-rule="nonzero"></path>
                            <path d="M48.184182,10 C49.9465511,10 51.5500181,10.279096 52.9945829,10.8372881 C54.4391477,11.3954802 55.49368,12.1483051 56.1581798,13.0957627 C56.8226797,14.0432203 57.1549296,15.8242938 57.1549296,18.4389831 L57.1549296,18.4389831 L57.1549296,28.0016949 L57.1579632,28.6340678 C57.1660527,29.4860452 57.1903214,30.3732768 57.2307692,31.2957627 C57.281329,32.4488701 57.5377393,33.7892655 58,35.3169492 L58,35.3169492 L53.7529794,35.3169492 L53.6335861,34.9258475 C53.2942579,33.7690678 53.1245937,32.7610169 53.1245937,31.9016949 C51.3622246,33.679096 49.8562658,34.8064972 48.6067172,35.2838983 C47.3571687,35.7612994 46.1617913,36 45.020585,36 C43.0993138,36 41.4488985,35.4014124 40.0693391,34.2042373 C38.6897797,33.0070621 38,31.3581921 38,29.2576271 C38,26.8779661 38.9714698,25.0418079 40.9144095,23.7491525 C42.8573492,22.4564972 46.2051282,21.340113 50.9577465,20.4 L50.9577465,20.4 L53.1245937,19.9813559 L53.1245937,17.2050847 L53.1194203,16.9427746 C53.0642369,15.5687946 52.5675865,14.5949319 51.6294691,14.0211864 C50.6327194,13.4115819 49.4337306,13.1067797 48.0325027,13.1067797 C46.3568075,13.1067797 45.0494763,13.4813559 44.1105092,14.2305085 C43.1715421,14.979661 42.7020585,15.8536723 42.7020585,16.8525424 L42.7020585,16.8525424 L42.7020585,17.2050847 L38.3250271,17.2050847 L38.3250271,16.8745763 L38.3319367,16.6410844 C38.3918198,15.6268506 38.8409431,14.5809524 39.6793066,13.5033898 C40.5821596,12.3429379 41.7811484,11.4689266 43.276273,10.8813559 C44.7713976,10.2937853 46.4073673,10 48.184182,10 Z M54,23 L52.7605634,23.3076923 L52.333961,23.4120944 C48.4024464,24.384807 45.8739564,25.3097133 44.7484909,26.1868132 C43.5828303,27.0952381 43,28.1794872 43,29.4395604 C43,30.0842491 43.1733736,30.6849817 43.5201207,31.2417582 C43.8668679,31.7985348 44.379611,32.2307692 45.0583501,32.5384615 C45.7370892,32.8461538 46.4084507,33 47.0724346,33 C48.22334,33 49.3558015,32.6666667 50.4698189,32 C51.5838364,31.3333333 52.4507042,30.4432234 53.0704225,29.3296703 C53.6901408,28.2161172 54,26.9194139 54,25.4395604 L54,25.4395604 L54,23 Z" id="Path-" fill="#FFFFFF" fill-rule="nonzero"></path>
                            <path d="M74.4952077,36 C76.4185304,36 78.0623003,35.7022901 79.4265176,35.1068702 C80.7907348,34.5114504 81.8940362,33.6550749 82.7364217,32.5377439 C83.5788072,31.4204128 84,30.3104326 84,29.2078032 L84,29.2078032 L84,28.9872774 L79.8178914,28.9872774 L79.8178914,29.2078032 C79.8178914,30.1046084 79.4078807,30.8911507 78.5878594,31.56743 C77.7678381,32.2437094 76.4781683,32.581849 74.7188498,32.581849 C72.6315229,32.581849 70.8796592,31.8247102 69.4632588,30.3104326 C68.0468584,28.7961549 67.3386581,26.3556686 67.3386581,22.9889737 C67.3386581,19.6369805 68.0468584,17.2038451 69.4632588,15.6895674 C70.8796592,14.1752898 72.6315229,13.418151 74.7188498,13.418151 C76.4781683,13.418151 77.7790202,13.7562906 78.6214058,14.43257 C79.4637913,15.1088493 79.8626198,15.8953916 79.8178914,16.7921968 L79.8178914,17.0127226 L84,17.0127226 L84,16.7921968 C84,15.5278485 83.5788072,14.3774385 82.7364217,13.3409669 C81.8940362,12.3044953 80.7907348,11.4885496 79.4265176,10.8931298 C78.0623003,10.2977099 76.4185304,10 74.4952077,10 C70.8125666,10 67.9760383,11.15041 65.985623,13.4512299 C63.9952077,15.7520498 63,18.9312977 63,22.9889737 C63,27.0613514 63.9952077,30.2479502 65.985623,32.5487701 C67.9760383,34.84959 70.8125666,36 74.4952077,36 Z" id="Path" fill="#FFFFFF" fill-rule="nonzero"></path>
                            <polygon id="Path" fill="#FFFFFF" fill-rule="nonzero" points="93 22.9068935 103.886145 36 109 36 97.9821674 22.6159355 108.604938 11 103.886145 11"></polygon>
                            <polygon id="Path" fill="#FFFFFF" fill-rule="nonzero" points="93 22.3141264 93 0 89 0 89 35 93 35"></polygon>
                        </g>
                    </g>
                    <path d="M4.06557377,83 L4.06557377,71.0947955 C4.06557377,68.7817018 4.38979964,67.0035109 5.03825137,65.760223 C5.6867031,64.5169352 6.55009107,63.5483271 7.6284153,62.854399 C8.70673953,62.1604709 9.84335155,61.8135068 11.0382514,61.8135068 C12.0874317,61.8135068 13.0200364,62.0701157 13.8360656,62.5833333 C14.6520947,63.096551 15.2058288,63.804936 15.4972678,64.7084882 C15.7887067,65.6120405 15.9344262,67.1480793 15.9344262,69.3166047 L15.9344262,69.3166047 L15.9344262,83 L20,83 L20,67.5817844 C20,64.9217266 19.6648452,62.9881247 18.9945355,61.7809789 C18.3242259,60.5738331 17.3806922,59.6594382 16.1639344,59.0377943 C14.9471767,58.4161504 13.5737705,58.1053284 12.0437158,58.1053284 C10.9653916,58.1053284 9.98542805,58.2679678 9.10382514,58.5932466 C8.22222222,58.9185254 7.37704918,59.3992152 6.56830601,60.035316 C5.75956284,60.6714168 4.92531876,61.6472532 4.06557377,62.9628253 L4.06557377,62.9628253 L4.06557377,48 L0,48 L0,83 L4.06557377,83 Z M32.020585,84 C33.1617913,84 34.3571687,83.7612994 35.6067172,83.2838983 C36.8562658,82.8064972 38.3622246,81.679096 40.1245937,79.9016949 C40.1245937,80.8564972 40.3340556,81.9949153 40.7529794,83.3169492 L40.7529794,83.3169492 L45,83.3169492 C44.5377393,81.7892655 44.281329,80.4488701 44.2307692,79.2957627 C44.1802095,78.1426554 44.1549296,77.0446328 44.1549296,76.0016949 L44.1549296,76.0016949 L44.1549296,66.4389831 C44.1549296,63.8242938 43.8226797,62.0432203 43.1581798,61.0957627 C42.49368,60.1483051 41.4391477,59.3954802 39.9945829,58.8372881 C38.5500181,58.279096 36.9465511,58 35.184182,58 C33.4073673,58 31.7713976,58.2937853 30.276273,58.8813559 C28.7811484,59.4689266 27.5821596,60.3429379 26.6793066,61.5033898 C25.7764536,62.6638418 25.3250271,63.7875706 25.3250271,64.8745763 L25.3250271,64.8745763 L25.3250271,65.2050847 L29.7020585,65.2050847 L29.7020585,64.8525424 C29.7020585,63.8536723 30.1715421,62.979661 31.1105092,62.2305085 C32.0494763,61.4813559 33.3568075,61.1067797 35.0325027,61.1067797 C36.4337306,61.1067797 37.6327194,61.4115819 38.6294691,62.0211864 C39.6262189,62.630791 40.1245937,63.6920904 40.1245937,65.2050847 L40.1245937,65.2050847 L40.1245937,67.9813559 L37.9577465,68.4 C33.2051282,69.340113 29.8573492,70.4564972 27.9144095,71.7491525 C25.9714698,73.0418079 25,74.8779661 25,77.2576271 C25,79.3581921 25.6897797,81.0070621 27.0693391,82.2042373 C28.4488985,83.4014124 30.0993138,84 32.020585,84 Z M34.0724346,81 C33.4084507,81 32.7370892,80.8461538 32.0583501,80.5384615 C31.379611,80.2307692 30.8668679,79.7985348 30.5201207,79.2417582 C30.1733736,78.6849817 30,78.0842491 30,77.4395604 C30,76.1794872 30.5828303,75.0952381 31.7484909,74.1868132 C32.9141516,73.2783883 35.5848424,72.3186813 39.7605634,71.3076923 L39.7605634,71.3076923 L41,71 L41,73.4395604 C41,74.9194139 40.6901408,76.2161172 40.0704225,77.3296703 C39.4507042,78.4432234 38.5838364,79.3333333 37.4698189,80 C36.3558015,80.6666667 35.22334,81 34.0724346,81 Z M55,83 L55,48 L51,48 L51,83 L55,83 Z M66,83 L66,48 L62,48 L62,83 L66,83 Z M80.2447917,84 L84.9153646,67.6615936 L85.6458333,64.0358102 L86,64.0358102 L86.6861979,67.6615936 L91.7773438,84 L95.9388021,84 L103,59 L99.1041667,59 L94.7434896,74.5102954 L94.1015625,78.2703671 L93.6588542,78.2703671 L92.8177083,74.5102954 L87.9036458,59 L83.7643229,59 L79.359375,74.5550582 L78.7174479,78.2703671 L78.2526042,78.2703671 L77.6770833,74.5550582 L73.3164062,59 L69,59 L76.0611979,84 L80.2447917,84 Z M113.020585,84 C114.161791,84 115.357169,83.7612994 116.606717,83.2838983 C117.856266,82.8064972 119.362225,81.679096 121.124594,79.9016949 C121.124594,80.8564972 121.334056,81.9949153 121.752979,83.3169492 L121.752979,83.3169492 L126,83.3169492 C125.537739,81.7892655 125.281329,80.4488701 125.230769,79.2957627 C125.180209,78.1426554 125.15493,77.0446328 125.15493,76.0016949 L125.15493,76.0016949 L125.15493,66.4389831 C125.15493,63.8242938 124.82268,62.0432203 124.15818,61.0957627 C123.49368,60.1483051 122.439148,59.3954802 120.994583,58.8372881 C119.550018,58.279096 117.946551,58 116.184182,58 C114.407367,58 112.771398,58.2937853 111.276273,58.8813559 C109.781148,59.4689266 108.58216,60.3429379 107.679307,61.5033898 C106.776454,62.6638418 106.325027,63.7875706 106.325027,64.8745763 L106.325027,64.8745763 L106.325027,65.2050847 L110.702059,65.2050847 L110.702059,64.8525424 C110.702059,63.8536723 111.171542,62.979661 112.110509,62.2305085 C113.049476,61.4813559 114.356808,61.1067797 116.032503,61.1067797 C117.433731,61.1067797 118.632719,61.4115819 119.629469,62.0211864 C120.626219,62.630791 121.124594,63.6920904 121.124594,65.2050847 L121.124594,65.2050847 L121.124594,67.9813559 L118.957746,68.4 C114.205128,69.340113 110.857349,70.4564972 108.91441,71.7491525 C106.97147,73.0418079 106,74.8779661 106,77.2576271 C106,79.3581921 106.68978,81.0070621 108.069339,82.2042373 C109.448899,83.4014124 111.099314,84 113.020585,84 Z M115.072435,81 C114.408451,81 113.737089,80.8461538 113.05835,80.5384615 C112.379611,80.2307692 111.866868,79.7985348 111.520121,79.2417582 C111.173374,78.6849817 111,78.0842491 111,77.4395604 C111,76.1794872 111.58283,75.0952381 112.748491,74.1868132 C113.914152,73.2783883 116.584842,72.3186813 120.760563,71.3076923 L120.760563,71.3076923 L122,71 L122,73.4395604 C122,74.9194139 121.690141,76.2161172 121.070423,77.3296703 C120.450704,78.4432234 119.583836,79.3333333 118.469819,80 C117.355801,80.6666667 116.22334,81 115.072435,81 Z M132.603402,93 C134.378991,93 135.800209,92.7807866 136.867055,92.3423598 C137.9339,91.9039329 138.944793,91.1476467 139.899731,90.073501 C140.85467,88.9993553 142.040883,86.8108747 143.458371,83.5080593 L143.458371,83.5080593 L154,59 L149.814682,59 L141.9812,77.1947131 L133.610564,59 L129,59 L139.743062,82.4339136 L139.317816,83.3765313 C138.347956,85.6125081 137.575798,87.0593166 137.001343,87.7169568 C136.426887,88.374597 135.706953,88.853213 134.84154,89.1528046 C133.976127,89.4523963 132.968964,89.6021921 131.820054,89.6021921 L131.820054,89.6021921 L129.470009,89.6021921 L129.470009,93 L132.603402,93 Z" id="hallway" stroke="#FFFFFF" stroke-width="2" fill="#FFFFFF" fill-rule="nonzero"></path>
                    <g  id="the" fill="#FFFFFF">
                        <path d="M12.3473684,36 C13.4210526,36 14.9719298,35.7584986 17,35.2754958 L17,35.2754958 L17,31.8505666 C15.3447368,32.3482059 14.1070175,32.5970255 13.2868421,32.5970255 C12.2578947,32.5970255 11.3743421,32.3994334 10.6361842,32.0042493 C9.89802632,31.6090652 9.35745614,30.9906752 9.01447368,30.1490793 C8.67149123,29.3074835 8.5,27.8035883 8.5,25.6373938 L8.5,25.6373938 L8.5,14.1990085 L15.7921053,14.1990085 L15.7921053,10.796034 L8.5,10.796034 L8.5,5 L4.33947368,5 L4.33947368,10.796034 L0,10.796034 L0,14.1990085 L4.33947368,14.1990085 L4.33947368,26.8009915 C4.33947368,29.3623702 4.66381579,31.2285175 5.3125,32.3994334 C5.96118421,33.5703494 6.90811404,34.4631728 8.15328947,35.0779037 C9.39846491,35.6926346 10.7964912,36 12.3473684,36 Z" id="Path" fill="#FFFFFF" fill-rule="nonzero"></path>
                        <path d="M26.0655738,35 L26.0655738,23.0947955 C26.0655738,20.7817018 26.3897996,19.0035109 27.0382514,17.760223 C27.6867031,16.5169352 28.5500911,15.5483271 29.6284153,14.854399 C30.7067395,14.1604709 31.8433515,13.8135068 33.0382514,13.8135068 C34.0874317,13.8135068 35.0200364,14.0701157 35.8360656,14.5833333 C36.6520947,15.096551 37.2058288,15.804936 37.4972678,16.7084882 C37.7887067,17.6120405 37.9344262,19.1480793 37.9344262,21.3166047 L37.9344262,21.3166047 L37.9344262,35 L42,35 L42,19.5817844 C42,16.9217266 41.6648452,14.9881247 40.9945355,13.7809789 C40.3242259,12.5738331 39.3806922,11.6594382 38.1639344,11.0377943 C36.9471767,10.4161504 35.5737705,10.1053284 34.0437158,10.1053284 C32.9653916,10.1053284 31.9854281,10.2679678 31.1038251,10.5932466 C30.2222222,10.9185254 29.3770492,11.3992152 28.568306,12.035316 C27.7595628,12.6714168 26.9253188,13.6472532 26.0655738,14.9628253 L26.0655738,14.9628253 L26.0655738,0 L22,0 L22,35 L26.0655738,35 Z" id="Path" fill="#FFFFFF" fill-rule="nonzero"></path>
                        <path d="M58.2630502,10 C60.0829069,10 61.7308086,10.4042974 63.2067554,11.2128923 C64.6827021,12.0214871 65.8505629,13.28216 66.7103378,14.9949109 C67.5701126,16.7076619 68,19.0930167 68,22.1509754 L68,22.1509754 L68,23.5182358 L50.9549642,23.5182358 L50.9601497,23.9095038 C51.0258329,26.3655372 51.7155067,28.4036189 53.0291709,30.0237489 C54.4119754,31.729149 56.3285568,32.581849 58.778915,32.581849 C60.5414534,32.581849 61.8275333,32.2326831 62.6371546,31.5343511 C63.4467758,30.8360192 63.8515865,30.0605033 63.8515865,29.2078032 L63.8515865,29.2078032 L63.8515865,28.9872774 L67.8495394,28.9872774 L67.8495394,29.2078032 L67.8420355,29.4592549 C67.7820038,30.4666275 67.3617825,31.4927905 66.5813715,32.5377439 C65.7359263,33.6697766 64.618219,34.5298275 63.2282497,35.1178965 C61.8382805,35.7059655 60.2405322,36 58.4350051,36 C54.7809621,36 51.9616172,34.7871077 49.9769703,32.3613232 C47.9923234,29.9355386 47,26.870229 47,23.1653944 C47,19.3723494 48.0496418,16.2298558 50.1489253,13.7379135 C52.2482088,11.2459712 54.9529171,10 58.2630502,10 Z M57.6401327,14 C56.1453842,14 54.7656164,14.6126834 53.5008292,15.8380503 C52.236042,17.0634172 51.4024323,18.7840671 51,21 L51,21 L64,21 L64,20.5157233 L63.9919154,20.1733176 C63.943408,19.1490723 63.6766169,18.1515723 63.1915423,17.1808176 C62.6525705,16.1022013 61.9087894,15.3024109 60.960199,14.7814465 C60.0116086,14.2604822 58.9049198,14 57.6401327,14 Z" id="Path" fill="#FFFFFF" fill-rule="nonzero"></path>
                    </g>
                </g>
            </g>
        </g>
    </g>
</svg>